<svg width="64" height="64" viewBox="0 0 64 64" fill="none" xmlns="http://www.w3.org/2000/svg">
  <rect width="64" height="64" rx="18" fill="#142432"/>
  <path d="M18 43C21.8 47.1 27.2 49 32.9 49C40.5 49 46 45 46 38.7C46 32.6 41.8 30 33.7 27.9C28.2 26.5 26.2 25.3 26.2 22.8C26.2 20.2 28.6 18.4 32.2 18.4C36.1 18.4 39.5 19.9 42.3 22.5L45.8 17.9C42.3 14.7 37.7 13 32.3 13C25.1 13 20 17.2 20 23.2C20 29.8 24.4 32.2 32.8 34.3C38.1 35.6 39.8 36.9 39.8 39.2C39.8 42 37.3 43.6 33 43.6C28.2 43.6 24.5 41.8 21.3 38.8L18 43Z" fill="#FBF7EE"/>
  <circle cx="47" cy="17" r="5" fill="#0E97A0"/>
</svg>
